<svg width="22" height="14" viewBox="0 0 22 14" fill="none" xmlns="http://www.w3.org/2000/svg">
<path fill-rule="evenodd" clip-rule="evenodd" d="M21.4994 6.99997C21.4994 6.80106 21.4204 6.61029 21.2797 6.46964C21.1391 6.32899 20.9483 6.24997 20.7494 6.24997H3.05989L7.78039 1.53097C7.85012 1.46124 7.90543 1.37846 7.94317 1.28735C7.98091 1.19624 8.00033 1.09859 8.00033 0.999971C8.00033 0.901355 7.98091 0.803705 7.94317 0.712596C7.90543 0.621487 7.85012 0.538703 7.78039 0.468971C7.71066 0.399239 7.62787 0.343925 7.53676 0.306186C7.44565 0.268447 7.348 0.249023 7.24939 0.249023C7.15077 0.249023 7.05312 0.268447 6.96201 0.306186C6.8709 0.343925 6.78812 0.399239 6.71839 0.468971L0.718388 6.46897C0.648543 6.53864 0.593128 6.6214 0.555319 6.71252C0.517509 6.80364 0.498047 6.90132 0.498047 6.99997C0.498047 7.09862 0.517509 7.1963 0.555319 7.28742C0.593128 7.37854 0.648543 7.4613 0.718388 7.53097L6.71839 13.531C6.78812 13.6007 6.8709 13.656 6.96201 13.6938C7.05312 13.7315 7.15077 13.7509 7.24939 13.7509C7.348 13.7509 7.44565 13.7315 7.53676 13.6938C7.62787 13.656 7.71066 13.6007 7.78039 13.531C7.85012 13.4612 7.90543 13.3785 7.94317 13.2873C7.98091 13.1962 8.00033 13.0986 8.00033 13C8.00033 12.9014 7.98091 12.8037 7.94317 12.7126C7.90543 12.6215 7.85012 12.5387 7.78039 12.469L3.05989 7.74997H20.7494C20.9483 7.74997 21.1391 7.67095 21.2797 7.5303C21.4204 7.38965 21.4994 7.19888 21.4994 6.99997Z" fill="white"/>
</svg>