<svg width="18" height="18" viewBox="0 0 18 18" fill="none" xmlns="http://www.w3.org/2000/svg">
<path d="M0 3.25C0 2.38805 0.34241 1.5614 0.951903 0.951903C1.5614 0.34241 2.38805 0 3.25 0H14.75C15.612 0 16.4386 0.34241 17.0481 0.951903C17.6576 1.5614 18 2.38805 18 3.25V14.75C18 15.612 17.6576 16.4386 17.0481 17.0481C16.4386 17.6576 15.612 18 14.75 18H3.25C2.38805 18 1.5614 17.6576 0.951903 17.0481C0.34241 16.4386 0 15.612 0 14.75V3.25ZM3.25 1.5C2.78587 1.5 2.34075 1.68437 2.01256 2.01256C1.68437 2.34075 1.5 2.78587 1.5 3.25V14.75C1.5 15.716 2.284 16.5 3.25 16.5H14.75C15.2141 16.5 15.6592 16.3156 15.9874 15.9874C16.3156 15.6592 16.5 15.2141 16.5 14.75V3.25C16.5 2.78587 16.3156 2.34075 15.9874 2.01256C15.6592 1.68437 15.2141 1.5 14.75 1.5H3.25ZM3 5.25C3 4.284 3.784 3.5 4.75 3.5H13.25C14.216 3.5 15 4.284 15 5.25V6.75C15 7.21413 14.8156 7.65925 14.4874 7.98744C14.1592 8.31563 13.7141 8.5 13.25 8.5H4.75C4.28587 8.5 3.84075 8.31563 3.51256 7.98744C3.18437 7.65925 3 7.21413 3 6.75V5.25ZM4.75 5C4.6837 5 4.62011 5.02634 4.57322 5.07322C4.52634 5.12011 4.5 5.1837 4.5 5.25V6.75C4.5 6.888 4.612 7 4.75 7H13.25C13.3163 7 13.3799 6.97366 13.4268 6.92678C13.4737 6.87989 13.5 6.8163 13.5 6.75V5.25C13.5 5.1837 13.4737 5.12011 13.4268 5.07322C13.3799 5.02634 13.3163 5 13.25 5H4.75ZM3.75 10C3.55109 10 3.36032 10.079 3.21967 10.2197C3.07902 10.3603 3 10.5511 3 10.75C3 10.9489 3.07902 11.1397 3.21967 11.2803C3.36032 11.421 3.55109 11.5 3.75 11.5H8.25C8.44891 11.5 8.63968 11.421 8.78033 11.2803C8.92098 11.1397 9 10.9489 9 10.75C9 10.5511 8.92098 10.3603 8.78033 10.2197C8.63968 10.079 8.44891 10 8.25 10H3.75ZM3 13.75C3 13.5511 3.07902 13.3603 3.21967 13.2197C3.36032 13.079 3.55109 13 3.75 13H8.25C8.44891 13 8.63968 13.079 8.78033 13.2197C8.92098 13.3603 9 13.5511 9 13.75C9 13.9489 8.92098 14.1397 8.78033 14.2803C8.63968 14.421 8.44891 14.5 8.25 14.5H3.75C3.55109 14.5 3.36032 14.421 3.21967 14.2803C3.07902 14.1397 3 13.9489 3 13.75ZM12.25 10C11.7859 10 11.3408 10.1844 11.0126 10.5126C10.6844 10.8408 10.5 11.2859 10.5 11.75V12.75C10.5 13.716 11.284 14.5 12.25 14.5H13.25C13.7141 14.5 14.1592 14.3156 14.4874 13.9874C14.8156 13.6592 15 13.2141 15 12.75V11.75C15 11.2859 14.8156 10.8408 14.4874 10.5126C14.1592 10.1844 13.7141 10 13.25 10H12.25ZM12 11.75C12 11.6837 12.0263 11.6201 12.0732 11.5732C12.1201 11.5263 12.1837 11.5 12.25 11.5H13.25C13.3163 11.5 13.3799 11.5263 13.4268 11.5732C13.4737 11.6201 13.5 11.6837 13.5 11.75V12.75C13.5 12.8163 13.4737 12.8799 13.4268 12.9268C13.3799 12.9737 13.3163 13 13.25 13H12.25C12.1837 13 12.1201 12.9737 12.0732 12.9268C12.0263 12.8799 12 12.8163 12 12.75V11.75Z" fill="white"/>
</svg>
