<svg width="24" height="27" viewBox="0 0 24 27" fill="none" xmlns="http://www.w3.org/2000/svg">
<path d="M10.0493 1.37847C11.1663 0.434113 12.8016 0.432966 13.9199 1.37577L22.9336 8.97477C23.6097 9.54478 24 10.3841 24 11.2684V24.3332C24 25.6219 22.9553 26.6666 21.6667 26.6666H2.33333C1.04467 26.6666 0 25.6219 0 24.3332V11.2667C0 10.3838 0.388907 9.54579 1.06312 8.97578L10.0493 1.37847ZM12.6308 2.90487C12.258 2.59062 11.7129 2.59099 11.3405 2.90578L2.35437 10.5031C2.12964 10.6931 2 10.9724 2 11.2667V24.3332C2 24.5172 2.14924 24.6666 2.33333 24.6666H21.6667C21.8508 24.6666 22 24.5172 22 24.3332V11.2684C22 10.9737 21.8699 10.6939 21.6445 10.5039L12.6308 2.90487ZM17.0449 12.2883C17.4355 12.6788 17.4355 13.3119 17.0449 13.7024L11.0404 19.7071C10.8529 19.8946 10.5985 19.9999 10.3333 19.9999C10.0681 19.9999 9.81373 19.8946 9.62627 19.7071L6.95956 17.0404C6.56904 16.6499 6.56904 16.0167 6.95956 15.6262C7.35008 15.2356 7.98325 15.2356 8.37377 15.6262L10.3333 17.5858L15.6307 12.2883C16.0212 11.8978 16.6544 11.8978 17.0449 12.2883Z" fill="#FFFFFF" fill-opacity="0.5"/>
</svg>
