<svg width="24" height="27" viewBox="0 0 24 27" fill="none" xmlns="http://www.w3.org/2000/svg">
<path d="M11.9835 0.661621C13.9135 0.661621 15.7171 1.20411 17.2471 2.14759C16.7912 2.63462 16.4387 3.21923 16.2243 3.86662C14.9943 3.10171 13.5405 2.66107 11.9835 2.66107C7.55063 2.66107 3.9733 6.22578 3.97266 10.6589V16.5368L2.17826 20.6612H21.8003L19.9944 16.5381L19.9945 10.676L19.9895 10.3759C19.9845 10.2314 19.9757 10.088 19.9633 9.94565C20.1913 9.97978 20.4247 9.99747 20.6621 9.99747C21.1129 9.99747 21.5488 9.93374 21.9612 9.81481C21.9755 9.98346 21.9856 10.1534 21.9915 10.3244L21.9971 10.6589V16.1201L23.8396 20.3269C23.9319 20.5375 23.9795 20.7648 23.9795 20.9945C23.9795 21.9147 23.2321 22.6607 22.3105 22.6607L15.9889 22.6627C15.9889 24.8712 14.1956 26.6616 11.9835 26.6616C9.8504 26.6616 8.10672 24.9968 7.9849 22.8977L7.9775 22.6597L1.66936 22.6607C1.44059 22.6607 1.21427 22.6137 1.00446 22.5228C0.159043 22.1561 -0.228624 21.1747 0.138589 20.3307L1.96995 16.1213V10.6588C1.97074 5.12054 6.44547 0.661621 11.9835 0.661621ZM13.9856 22.6597L9.9808 22.6627C9.9808 23.7669 10.8775 24.6621 11.9835 24.6621C13.0245 24.6621 13.88 23.8692 13.9771 22.8552L13.9856 22.6597ZM17.3773 4.73703C17.5043 4.03418 17.8519 3.40794 18.346 2.93242C18.9463 2.35485 19.7627 1.99963 20.6621 1.99963C22.5056 1.99963 24 3.49161 24 5.33206C24 6.78925 23.0632 8.02798 21.758 8.48071C21.4148 8.59979 21.046 8.6645 20.6621 8.6645C20.3309 8.6645 20.0111 8.61634 19.7091 8.52666C18.33 8.11717 17.3243 6.84186 17.3243 5.33206C17.3243 5.12897 17.3425 4.93011 17.3773 4.73703Z" fill="#5A8EFF"/>
</svg>