<svg width="28" height="28" viewBox="0 0 28 28" fill="none" xmlns="http://www.w3.org/2000/svg">
<path d="M20.6665 15.9998C20.6665 14.8953 19.771 13.9998 18.6665 13.9998H9.33317C8.2286 13.9998 7.33317 14.8953 7.33317 15.9998V16.6665C7.33317 19.295 9.81252 21.9998 13.9998 21.9998C18.1872 21.9998 20.6665 19.295 20.6665 16.6665V15.9998ZM17.6665 8.99984C17.6665 6.9748 16.0249 5.33317 13.9998 5.33317C11.9748 5.33317 10.3332 6.9748 10.3332 8.99984C10.3332 11.0249 11.9748 12.6665 13.9998 12.6665C16.0249 12.6665 17.6665 11.0249 17.6665 8.99984ZM27.3332 13.9998C27.3332 21.3636 21.3636 27.3332 13.9998 27.3332C6.63604 27.3332 0.666504 21.3636 0.666504 13.9998C0.666504 6.63604 6.63604 0.666504 13.9998 0.666504C21.3636 0.666504 27.3332 6.63604 27.3332 13.9998ZM25.3332 13.9998C25.3332 7.74061 20.259 2.6665 13.9998 2.6665C7.74061 2.6665 2.6665 7.74061 2.6665 13.9998C2.6665 20.259 7.74061 25.3332 13.9998 25.3332C20.259 25.3332 25.3332 20.259 25.3332 13.9998Z" fill="#FFFFFF" fill-opacity="0.5"/>
</svg>
