<svg width="22" height="18" viewBox="0 0 22 18" fill="none" xmlns="http://www.w3.org/2000/svg">
<path d="M13.1434 1.12612C13.1434 0.188407 12.0231 -0.296736 11.3391 0.344407L7.10742 4.31298C6.82933 4.57355 6.4625 4.7185 6.08141 4.71841H3.50056C2.76174 4.71841 2.05318 5.0119 1.53076 5.53432C1.00834 6.05675 0.714844 6.7653 0.714844 7.50412V10.4973C0.714844 11.2361 1.00834 11.9446 1.53076 12.4671C2.05318 12.9895 2.76174 13.283 3.50056 13.283H6.08227C6.46284 13.283 6.8297 13.4287 7.10742 13.6884L11.3391 17.6536C12.024 18.2947 13.1434 17.8096 13.1434 16.8718V1.12612ZM7.98684 5.25069L11.8577 1.61984V16.3764L7.98684 12.749C7.47056 12.2654 6.78965 11.9964 6.08227 11.9964H3.50056C3.10273 11.9964 2.7212 11.8384 2.4399 11.5571C2.15859 11.2758 2.00056 10.8942 2.00056 10.4964V7.50326C2.00056 6.67526 2.67256 6.00326 3.50056 6.00326H6.08141C6.78933 6.00307 7.47061 5.73338 7.98684 5.24898V5.25069ZM18.4594 1.50155C18.3453 1.37938 18.1881 1.30645 18.0212 1.29824C17.8542 1.29002 17.6906 1.34715 17.5651 1.45753C17.4396 1.5679 17.362 1.72283 17.3487 1.88947C17.3355 2.0561 17.3877 2.22133 17.4943 2.35012C19.1132 4.18655 20.0046 6.55168 20.0006 8.99984C20.0006 11.5481 19.0551 13.8744 17.4943 15.6487C17.4355 15.7116 17.39 15.7856 17.3605 15.8664C17.3309 15.9472 17.3178 16.0331 17.322 16.1191C17.3263 16.205 17.3477 16.2892 17.3851 16.3667C17.4225 16.4442 17.475 16.5134 17.5396 16.5702C17.6043 16.6271 17.6796 16.6703 17.7613 16.6975C17.8429 16.7246 17.9292 16.7351 18.015 16.7283C18.1007 16.7215 18.1843 16.6975 18.2606 16.6579C18.337 16.6182 18.4046 16.5636 18.4594 16.4973C20.2846 14.4265 21.2899 11.7601 21.2863 8.99984C21.2903 6.23924 20.2849 3.57241 18.4594 1.50155V1.50155ZM16.4451 4.11584C16.395 4.04681 16.3316 3.98846 16.2587 3.94417C16.1858 3.89988 16.1048 3.87055 16.0205 3.85788C15.9361 3.8452 15.8501 3.84945 15.7674 3.87036C15.6847 3.89127 15.607 3.92843 15.5388 3.97967C15.4706 4.03092 15.4133 4.09523 15.3702 4.16884C15.3271 4.24246 15.2991 4.32392 15.2878 4.40847C15.2765 4.49302 15.2821 4.57898 15.3044 4.66133C15.3266 4.74368 15.3651 4.82077 15.4174 4.88812C16.3084 6.07355 16.7889 7.51694 16.7863 8.99984C16.7863 10.5427 16.2771 11.9656 15.4174 13.1116C15.3668 13.1791 15.3299 13.2559 15.309 13.3377C15.288 13.4195 15.2834 13.5046 15.2953 13.5882C15.3072 13.6718 15.3355 13.7522 15.3785 13.8248C15.4216 13.8974 15.4784 13.9609 15.546 14.0116C15.6135 14.0622 15.6904 14.0991 15.7722 14.12C15.8539 14.141 15.939 14.1456 16.0226 14.1337C16.1062 14.1217 16.1866 14.0934 16.2592 14.0504C16.3319 14.0074 16.3953 13.9505 16.446 13.883C17.5038 12.475 18.0746 10.7609 18.072 8.99984C18.0747 7.23874 17.5039 5.52464 16.446 4.11669L16.4451 4.11584Z" fill="#5A8EFF"/>
</svg>