<svg width="22" height="18" viewBox="0 0 22 18" fill="none" xmlns="http://www.w3.org/2000/svg">
<path d="M13.1434 1.12637C13.1434 0.188651 12.0231 -0.296492 11.3391 0.344651L7.10742 4.31322C6.82933 4.57379 6.4625 4.71875 6.08141 4.71865H3.50056C2.76174 4.71865 2.05318 5.01214 1.53076 5.53457C1.00834 6.05699 0.714844 6.76555 0.714844 7.50437V10.4975C0.714844 11.2363 1.00834 11.9449 1.53076 12.4673C2.05318 12.9897 2.76174 13.2832 3.50056 13.2832H6.08227C6.46284 13.2832 6.8297 13.4289 7.10742 13.6887L11.3391 17.6538C12.024 18.2949 13.1434 17.8098 13.1434 16.8721V1.12637ZM7.98684 5.25094L11.8577 1.62008V16.3767L7.98684 12.7492C7.47056 12.2657 6.78965 11.9966 6.08227 11.9967H3.50056C3.10273 11.9967 2.7212 11.8386 2.4399 11.5573C2.15859 11.276 2.00056 10.8945 2.00056 10.4967V7.50351C2.00056 6.67551 2.67256 6.00351 3.50056 6.00351H6.08141C6.78933 6.00332 7.47061 5.73362 7.98684 5.24922V5.25094ZM18.4594 1.50179C18.3453 1.37962 18.1881 1.3067 18.0212 1.29848C17.8542 1.29026 17.6906 1.3474 17.5651 1.45777C17.4396 1.56814 17.362 1.72308 17.3487 1.88971C17.3355 2.05634 17.3877 2.22158 17.4943 2.35037C19.1132 4.1868 20.0046 6.55192 20.0006 9.00008C20.0006 11.5484 19.0551 13.8747 17.4943 15.6489C17.4355 15.7118 17.39 15.7859 17.3605 15.8667C17.3309 15.9475 17.3178 16.0334 17.322 16.1193C17.3263 16.2052 17.3477 16.2895 17.3851 16.367C17.4225 16.4445 17.475 16.5137 17.5396 16.5705C17.6043 16.6273 17.6796 16.6706 17.7613 16.6977C17.8429 16.7249 17.9292 16.7354 18.015 16.7285C18.1007 16.7217 18.1843 16.6978 18.2606 16.6581C18.337 16.6184 18.4046 16.5638 18.4594 16.4975C20.2846 14.4268 21.2899 11.7604 21.2863 9.00008C21.2903 6.23948 20.2849 3.57266 18.4594 1.50179V1.50179ZM16.4451 4.11608C16.395 4.04706 16.3316 3.9887 16.2587 3.94442C16.1858 3.90013 16.1048 3.87079 16.0205 3.85812C15.9361 3.84545 15.8501 3.84969 15.7674 3.8706C15.6847 3.89151 15.607 3.92867 15.5388 3.97992C15.4706 4.03116 15.4133 4.09547 15.3702 4.16909C15.3271 4.24271 15.2991 4.32416 15.2878 4.40872C15.2765 4.49327 15.2821 4.57922 15.3044 4.66157C15.3266 4.74392 15.3651 4.82102 15.4174 4.88837C16.3084 6.07379 16.7889 7.51718 16.7863 9.00008C16.7863 10.5429 16.2771 11.9658 15.4174 13.1118C15.3668 13.1793 15.3299 13.2562 15.309 13.338C15.288 13.4197 15.2834 13.5049 15.2953 13.5884C15.3072 13.672 15.3355 13.7524 15.3785 13.825C15.4216 13.8977 15.4784 13.9611 15.546 14.0118C15.6135 14.0624 15.6904 14.0993 15.7722 14.1203C15.8539 14.1412 15.939 14.1458 16.0226 14.1339C16.1062 14.122 16.1866 14.0937 16.2592 14.0507C16.3319 14.0077 16.3953 13.9508 16.446 13.8832C17.5038 12.4752 18.0746 10.7612 18.072 9.00008C18.0747 7.23898 17.5039 5.52489 16.446 4.11694L16.4451 4.11608Z" fill="#407BFF"/>
</svg>
