<svg width="23" height="30" viewBox="0 0 23 30" fill="none" xmlns="http://www.w3.org/2000/svg">
<path d="M0.500488 4.0732C0.500488 3.11646 0.88055 2.19891 1.55706 1.5224C2.23358 0.845882 3.15113 0.46582 4.10787 0.46582L18.5374 0.46582C19.4941 0.46582 20.4117 0.845882 21.0882 1.5224C21.7647 2.19891 22.1448 3.11646 22.1448 4.0732V28.423C22.1447 28.5861 22.1003 28.7462 22.0165 28.8861C21.9326 29.026 21.8124 29.1406 21.6686 29.2176C21.5248 29.2946 21.3628 29.3311 21.1998 29.3233C21.0369 29.3156 20.8791 29.2637 20.7433 29.1733L11.3226 24.096L1.90195 29.1733C1.76615 29.2637 1.60837 29.3156 1.44543 29.3233C1.28248 29.3311 1.12048 29.2946 0.976661 29.2176C0.832847 29.1406 0.71261 29.026 0.628756 28.8861C0.544902 28.7462 0.500573 28.5861 0.500488 28.423V4.0732ZM4.10787 2.26951C3.6295 2.26951 3.17072 2.45954 2.83247 2.7978C2.49421 3.13605 2.30418 3.59483 2.30418 4.0732V26.7384L10.823 22.2616C10.971 22.1631 11.1448 22.1106 11.3226 22.1106C11.5004 22.1106 11.6742 22.1631 11.8222 22.2616L20.3411 26.7384V4.0732C20.3411 3.59483 20.151 3.13605 19.8128 2.7978C19.4745 2.45954 19.0157 2.26951 18.5374 2.26951H4.10787Z" fill="white" fill-opacity="0.5"/>
<path d="M11.3227 7.68066C11.5619 7.68066 11.7913 7.77568 11.9604 7.94481C12.1295 8.11394 12.2245 8.34332 12.2245 8.58251V11.288H14.9301C15.1693 11.288 15.3987 11.3831 15.5678 11.5522C15.7369 11.7213 15.8319 11.9507 15.8319 12.1899C15.8319 12.4291 15.7369 12.6585 15.5678 12.8276C15.3987 12.9967 15.1693 13.0917 14.9301 13.0917H12.2245V15.7973C12.2245 16.0364 12.1295 16.2658 11.9604 16.435C11.7913 16.6041 11.5619 16.6991 11.3227 16.6991C11.0835 16.6991 10.8541 16.6041 10.685 16.435C10.5159 16.2658 10.4209 16.0364 10.4209 15.7973V13.0917H7.71532C7.47614 13.0917 7.24675 12.9967 7.07762 12.8276C6.90849 12.6585 6.81348 12.4291 6.81348 12.1899C6.81348 11.9507 6.90849 11.7213 7.07762 11.5522C7.24675 11.3831 7.47614 11.288 7.71532 11.288H10.4209V8.58251C10.4209 8.34332 10.5159 8.11394 10.685 7.94481C10.8541 7.77568 11.0835 7.68066 11.3227 7.68066Z" fill="white" fill-opacity="0.5"/>
</svg>