<svg width="23" height="30" viewBox="0 0 23 30" fill="none" xmlns="http://www.w3.org/2000/svg">
<path fill-rule="evenodd" clip-rule="evenodd" d="M0.89502 28.5959V4.24605C0.89502 3.28931 1.27508 2.37176 1.9516 1.69525C2.62811 1.01873 3.54566 0.638672 4.5024 0.638672L18.9319 0.638672C19.8886 0.638672 20.8062 1.01873 21.4827 1.69525C22.1592 2.37176 22.5393 3.28931 22.5393 4.24605V28.5959C22.5394 28.7525 22.4987 28.9064 22.4213 29.0425C22.3438 29.1786 22.2323 29.2922 22.0976 29.3721C21.9629 29.452 21.8097 29.4955 21.6531 29.4982C21.4965 29.5009 21.3419 29.4628 21.2046 29.3877L11.7172 24.2111L2.22975 29.3877C2.09236 29.4628 1.93777 29.5009 1.78118 29.4982C1.6246 29.4955 1.47142 29.452 1.33673 29.3721C1.20204 29.2922 1.09048 29.1786 1.01303 29.0425C0.935575 28.9064 0.894905 28.7525 0.89502 28.5959ZM12.619 8.75527C12.619 8.51609 12.524 8.2867 12.3549 8.11757C12.1857 7.94844 11.9563 7.85343 11.7172 7.85343C11.478 7.85343 11.2486 7.94844 11.0795 8.11757C10.9103 8.2867 10.8153 8.51609 10.8153 8.75527V11.4608H8.10978C7.87059 11.4608 7.6412 11.5558 7.47208 11.725C7.30295 11.8941 7.20793 12.1235 7.20793 12.3627C7.20793 12.6018 7.30295 12.8312 7.47208 13.0004C7.6412 13.1695 7.87059 13.2645 8.10978 13.2645H10.8153V15.97C10.8153 16.2092 10.9103 16.4386 11.0795 16.6077C11.2486 16.7769 11.478 16.8719 11.7172 16.8719C11.9563 16.8719 12.1857 16.7769 12.3549 16.6077C12.524 16.4386 12.619 16.2092 12.619 15.97V13.2645H15.3245C15.5637 13.2645 15.7931 13.1695 15.9622 13.0004C16.1314 12.8312 16.2264 12.6018 16.2264 12.3627C16.2264 12.1235 16.1314 11.8941 15.9622 11.725C15.7931 11.5558 15.5637 11.4608 15.3245 11.4608H12.619V8.75527Z" fill="#5A8EFF"/>
</svg>