<svg width="22" height="28" viewBox="0 0 22 28" fill="none" xmlns="http://www.w3.org/2000/svg">
<path d="M0.333496 6.99736C0.333496 5.3403 1.67672 3.99698 3.33367 3.99698H15.3343C16.9912 3.99698 18.3346 5.3403 18.3346 6.99736V26.333C18.3346 26.6912 18.1431 27.022 17.8326 27.2002C17.522 27.3786 17.1399 27.3774 16.8306 27.1969L9.33403 22.8237L1.83746 27.1969C1.52815 27.3774 1.14598 27.3786 0.83547 27.2002C0.52495 27.022 0.333496 26.6912 0.333496 26.333V6.99736ZM3.33367 5.99724C2.78135 5.99724 2.3336 6.445 2.3336 6.99736V24.5918L8.83016 20.802C9.1415 20.6202 9.52656 20.6202 9.8379 20.802L16.3344 24.5918V6.99736C16.3344 6.445 15.8867 5.99724 15.3343 5.99724H3.33367ZM15.3331 0.666504C18.8311 0.666504 21.6668 3.50238 21.6668 7.00061V22.8308C21.6668 23.383 21.2191 23.8309 20.6668 23.8309C20.1144 23.8309 19.6667 23.383 19.6667 22.8308V7.00061C19.6667 4.60708 17.7266 2.66674 15.3331 2.66674H3.84932C3.84932 2.66674 4.00038 1.92436 4.91188 1.22581C5.66714 0.666504 6.46926 0.666504 6.46926 0.666504H15.3331Z" fill="#5A8EFF"/>
</svg>