<svg width="23" height="30" viewBox="0 0 23 30" fill="none" xmlns="http://www.w3.org/2000/svg">
<path fill-rule="evenodd" clip-rule="evenodd" d="M0.89502 28.5961V4.24629C0.89502 3.28956 1.27508 2.37201 1.9516 1.69549C2.62811 1.01898 3.54566 0.638916 4.5024 0.638916L18.9319 0.638916C19.8886 0.638916 20.8062 1.01898 21.4827 1.69549C22.1592 2.37201 22.5393 3.28956 22.5393 4.24629V28.5961C22.5394 28.7527 22.4987 28.9066 22.4213 29.0428C22.3438 29.1789 22.2323 29.2925 22.0976 29.3724C21.9629 29.4523 21.8097 29.4957 21.6531 29.4985C21.4965 29.5012 21.3419 29.4631 21.2046 29.3879L11.7172 24.2113L2.22975 29.3879C2.09236 29.4631 1.93777 29.5012 1.78118 29.4985C1.6246 29.4957 1.47142 29.4523 1.33673 29.3724C1.20204 29.2925 1.09048 29.1789 1.01303 29.0428C0.935575 28.9066 0.894905 28.7527 0.89502 28.5961ZM12.619 8.75552C12.619 8.51633 12.524 8.28695 12.3549 8.11782C12.1857 7.94869 11.9563 7.85367 11.7172 7.85367C11.478 7.85367 11.2486 7.94869 11.0795 8.11782C10.9103 8.28695 10.8153 8.51633 10.8153 8.75552V11.4611H8.10978C7.87059 11.4611 7.6412 11.5561 7.47208 11.7252C7.30295 11.8943 7.20793 12.1237 7.20793 12.3629C7.20793 12.6021 7.30295 12.8315 7.47208 13.0006C7.6412 13.1697 7.87059 13.2647 8.10978 13.2647H10.8153V15.9703C10.8153 16.2095 10.9103 16.4388 11.0795 16.608C11.2486 16.7771 11.478 16.8721 11.7172 16.8721C11.9563 16.8721 12.1857 16.7771 12.3549 16.608C12.524 16.4388 12.619 16.2095 12.619 15.9703V13.2647H15.3245C15.5637 13.2647 15.7931 13.1697 15.9622 13.0006C16.1314 12.8315 16.2264 12.6021 16.2264 12.3629C16.2264 12.1237 16.1314 11.8943 15.9622 11.7252C15.7931 11.5561 15.5637 11.4611 15.3245 11.4611H12.619V8.75552Z" fill="#407BFF"/>
</svg>
