<svg width="23" height="30" viewBox="0 0 23 30" fill="none" xmlns="http://www.w3.org/2000/svg">
<path d="M0.500488 4.07295C0.500488 3.11622 0.88055 2.19867 1.55706 1.52215C2.23358 0.845638 3.15113 0.465576 4.10787 0.465576L18.5374 0.465576C19.4941 0.465576 20.4117 0.845638 21.0882 1.52215C21.7647 2.19867 22.1448 3.11622 22.1448 4.07295V28.4228C22.1447 28.5859 22.1003 28.7459 22.0165 28.8859C21.9326 29.0258 21.8124 29.1404 21.6686 29.2174C21.5248 29.2944 21.3628 29.3309 21.1998 29.3231C21.0369 29.3153 20.8791 29.2635 20.7433 29.1731L11.3226 24.0957L1.90195 29.1731C1.76615 29.2635 1.60837 29.3153 1.44543 29.3231C1.28248 29.3309 1.12048 29.2944 0.976661 29.2174C0.832847 29.1404 0.71261 29.0258 0.628756 28.8859C0.544902 28.7459 0.500573 28.5859 0.500488 28.4228V4.07295ZM4.10787 2.26927C3.6295 2.26927 3.17072 2.4593 2.83247 2.79755C2.49421 3.13581 2.30418 3.59459 2.30418 4.07295V26.7381L10.823 22.2614C10.971 22.1629 11.1448 22.1103 11.3226 22.1103C11.5004 22.1103 11.6742 22.1629 11.8222 22.2614L20.3411 26.7381V4.07295C20.3411 3.59459 20.151 3.13581 19.8128 2.79755C19.4745 2.4593 19.0157 2.26927 18.5374 2.26927H4.10787Z" fill="black" fill-opacity="0.5"/>
<path d="M11.3227 7.68042C11.5619 7.68042 11.7913 7.77544 11.9604 7.94456C12.1295 8.11369 12.2245 8.34308 12.2245 8.58226V11.2878H14.9301C15.1693 11.2878 15.3987 11.3828 15.5678 11.5519C15.7369 11.7211 15.8319 11.9505 15.8319 12.1896C15.8319 12.4288 15.7369 12.6582 15.5678 12.8273C15.3987 12.9965 15.1693 13.0915 14.9301 13.0915H12.2245V15.797C12.2245 16.0362 12.1295 16.2656 11.9604 16.4347C11.7913 16.6039 11.5619 16.6989 11.3227 16.6989C11.0835 16.6989 10.8541 16.6039 10.685 16.4347C10.5159 16.2656 10.4209 16.0362 10.4209 15.797V13.0915H7.71532C7.47614 13.0915 7.24675 12.9965 7.07762 12.8273C6.90849 12.6582 6.81348 12.4288 6.81348 12.1896C6.81348 11.9505 6.90849 11.7211 7.07762 11.5519C7.24675 11.3828 7.47614 11.2878 7.71532 11.2878H10.4209V8.58226C10.4209 8.34308 10.5159 8.11369 10.685 7.94456C10.8541 7.77544 11.0835 7.68042 11.3227 7.68042V7.68042Z" fill="black" fill-opacity="0.5"/>
</svg>
